<mxfile host="65bd71144e">
    <diagram id="qBmoJfCWXca8vSfgYFj8" name="Page-1">
        <mxGraphModel dx="1223" dy="717" grid="1" gridSize="10" guides="1" tooltips="1" connect="1" arrows="1" fold="1" page="1" pageScale="1" pageWidth="827" pageHeight="1169" math="0" shadow="0">
            <root>
                <mxCell id="0"/>
                <mxCell id="1" parent="0"/>
                <mxCell id="3" value="Actor" style="shape=umlActor;verticalLabelPosition=bottom;verticalAlign=top;html=1;fillColor=#f8cecc;gradientColor=#ea6b66;strokeWidth=4;perimeterSpacing=0;sketch=0;shadow=1;strokeColor=#E89C99;" parent="1" vertex="1">
                    <mxGeometry x="330" y="440" width="160" height="260" as="geometry"/>
                </mxCell>
                <mxCell id="4" value="&lt;b&gt;&lt;font face=&quot;Comic Sans MS&quot; style=&quot;font-size: 20px&quot; color=&quot;#432087&quot;&gt;Users&lt;/font&gt;&lt;/b&gt;" style="ellipse;shape=cloud;whiteSpace=wrap;html=1;shadow=1;sketch=0;strokeWidth=4;gradientColor=#7ea6e0;fillColor=#dae8fc;strokeColor=#8DBAFA;" parent="1" vertex="1">
                    <mxGeometry x="100" y="360" width="120" height="80" as="geometry"/>
                </mxCell>
                <mxCell id="8" value="&lt;b&gt;&lt;font face=&quot;Comic Sans MS&quot; style=&quot;font-size: 20px&quot; color=&quot;#432087&quot;&gt;Orders&lt;/font&gt;&lt;/b&gt;" style="ellipse;shape=cloud;whiteSpace=wrap;html=1;shadow=1;sketch=0;strokeWidth=4;gradientColor=#7ea6e0;fillColor=#dae8fc;strokeColor=#8DBAFA;" parent="1" vertex="1">
                    <mxGeometry x="190" y="250" width="120" height="80" as="geometry"/>
                </mxCell>
                <mxCell id="9" value="&lt;b&gt;&lt;font face=&quot;Comic Sans MS&quot; style=&quot;font-size: 20px&quot; color=&quot;#432087&quot;&gt;Products&lt;/font&gt;&lt;/b&gt;" style="ellipse;shape=cloud;whiteSpace=wrap;html=1;shadow=1;sketch=0;strokeWidth=4;gradientColor=#7ea6e0;fillColor=#dae8fc;strokeColor=#8DBAFA;" parent="1" vertex="1">
                    <mxGeometry x="345" y="200" width="120" height="80" as="geometry"/>
                </mxCell>
                <mxCell id="10" value="&lt;b&gt;&lt;font face=&quot;Comic Sans MS&quot; style=&quot;font-size: 20px&quot; color=&quot;#432087&quot;&gt;Shippings&lt;/font&gt;&lt;/b&gt;" style="ellipse;shape=cloud;whiteSpace=wrap;html=1;shadow=1;sketch=0;strokeWidth=4;gradientColor=#7ea6e0;fillColor=#dae8fc;strokeColor=#8DBAFA;" parent="1" vertex="1">
                    <mxGeometry x="580" y="360" width="120" height="80" as="geometry"/>
                </mxCell>
                <mxCell id="11" value="&lt;b&gt;&lt;font face=&quot;Comic Sans MS&quot; style=&quot;font-size: 20px&quot; color=&quot;#432087&quot;&gt;Payment&lt;/font&gt;&lt;/b&gt;" style="ellipse;shape=cloud;whiteSpace=wrap;html=1;shadow=1;sketch=0;strokeWidth=4;gradientColor=#7ea6e0;fillColor=#dae8fc;strokeColor=#8DBAFA;" parent="1" vertex="1">
                    <mxGeometry x="490" y="250" width="120" height="80" as="geometry"/>
                </mxCell>
                <mxCell id="12" value="&lt;font style=&quot;font-size: 22px&quot;&gt;&lt;font color=&quot;#ffcec7&quot;&gt;STEP 1: &lt;/font&gt;&lt;font color=&quot;#8a3f3c&quot;&gt;&lt;b&gt;PURPOSE&lt;/b&gt;&amp;nbsp;&lt;/font&gt;&lt;font color=&quot;#ffcec7&quot;&gt;(and functionality)&lt;/font&gt;&lt;/font&gt;" style="shape=hexagon;perimeter=hexagonPerimeter2;whiteSpace=wrap;html=1;fixedSize=1;fontColor=#ffffff;fillColor=#E86A65;strokeColor=#8A3F3C;" parent="1" vertex="1">
                    <mxGeometry y="10" width="810" height="60" as="geometry"/>
                </mxCell>
            </root>
        </mxGraphModel>
    </diagram>
</mxfile>